<svg width="25" height="25" viewBox="0 0 25 25" fill="none" xmlns="http://www.w3.org/2000/svg">
<path fill-rule="evenodd" clip-rule="evenodd" d="M11.9777 8.85109C11.9777 9.78413 11.6268 10.636 11.0499 11.2805C11.8596 11.8565 12.4653 12.675 12.7795 13.6177C13.0936 14.5604 13.1 15.5786 12.7976 16.5251C12.4952 17.4717 11.8997 18.2976 11.0972 18.8836C10.2947 19.4696 9.32672 19.7854 8.33303 19.7852H3.64698C3.2327 19.7852 2.8354 19.6206 2.54247 19.3277C2.24953 19.0348 2.08496 18.6375 2.08496 18.2232V5.72706C2.08496 5.31278 2.24953 4.91548 2.54247 4.62254C2.8354 4.32961 3.2327 4.16504 3.64698 4.16504H7.81236C8.91708 4.16504 9.97656 4.60389 10.7577 5.38505C11.5389 6.16621 11.9777 7.22569 11.9777 8.33042V8.85109ZM4.16765 10.4131V6.24773H7.81236C8.36472 6.24773 8.89446 6.46715 9.28504 6.85773C9.67562 7.24831 9.89504 7.77805 9.89504 8.33042V8.85109C9.89504 9.26536 9.73047 9.66267 9.43754 9.9556C9.14461 10.2485 8.7473 10.4131 8.33303 10.4131H4.16765ZM4.16765 12.4958H8.33303C9.02348 12.4958 9.68566 12.7701 10.1739 13.2583C10.6621 13.7465 10.9364 14.4087 10.9364 15.0992C10.9364 15.7896 10.6621 16.4518 10.1739 16.94C9.68566 17.4282 9.02348 17.7025 8.33303 17.7025H4.16765V12.4958Z" fill="#C4B6B6"/>
<path d="M15.6226 6.24838C15.6226 5.97219 15.7323 5.70732 15.9276 5.51203C16.1229 5.31674 16.3877 5.20703 16.6639 5.20703H20.3086C20.5848 5.20703 20.8497 5.31674 21.0449 5.51203C21.2402 5.70732 21.35 5.97219 21.35 6.24838C21.35 6.52456 21.2402 6.78943 21.0449 6.98472C20.8497 7.18001 20.5848 7.28972 20.3086 7.28972H16.6639C16.3877 7.28972 16.1229 7.18001 15.9276 6.98472C15.7323 6.78943 15.6226 6.52456 15.6226 6.24838Z" fill="#C4B6B6"/>
<path fill-rule="evenodd" clip-rule="evenodd" d="M18.4861 8.33105C15.5276 8.33105 13.019 10.6033 13.019 13.5378V14.5791C13.019 17.5136 15.5276 19.7858 18.4861 19.7858C20.0637 19.7858 21.2061 19.3318 21.9715 18.8382C22.4318 18.5425 22.7931 18.1822 23.1409 17.7677C23.2922 17.5404 23.3482 17.2628 23.2969 16.9946C23.2455 16.7265 23.0908 16.4892 22.8662 16.334C22.6416 16.1787 22.365 16.1179 22.096 16.1646C21.8269 16.2113 21.587 16.3618 21.4279 16.5837C21.2626 16.7827 21.0656 16.953 20.8447 17.0877C20.3959 17.3762 19.641 17.7032 18.4861 17.7032C16.5565 17.7032 15.1017 16.2453 15.1017 14.5791H22.9118C23.188 14.5791 23.4529 14.4694 23.6482 14.2741C23.8434 14.0788 23.9532 13.814 23.9532 13.5378C23.9532 10.6033 21.4446 8.33105 18.4861 8.33105ZM21.6757 12.4964C21.2175 11.3083 19.9971 10.4137 18.4861 10.4137C16.9751 10.4137 15.7547 11.3083 15.2965 12.4964H21.6757Z" fill="#C4B6B6"/>
</svg>
