<svg width="26" height="25" viewBox="0 0 26 25" fill="none" xmlns="http://www.w3.org/2000/svg">
<path fill-rule="evenodd" clip-rule="evenodd" d="M4.45903 11.1616C7.15819 11.3855 9.74281 10.844 11.8828 9.62044C10.8062 8.02127 9.54471 6.55464 8.12456 5.25096C7.14609 5.93757 6.31685 6.81528 5.68686 7.83114C5.05687 8.84699 4.63919 9.97994 4.45903 11.1616ZM7.68511 3.05997C6.03819 4.02381 4.67233 5.40208 3.72342 7.05765C2.7745 8.71322 2.27561 10.5884 2.27637 12.4966C2.27637 18.5354 7.17173 23.4307 13.2105 23.4307C19.2492 23.4307 24.1446 18.5354 24.1446 12.4966C24.1446 6.45787 19.2492 1.56251 13.2105 1.56251C11.2682 1.55937 9.36039 2.07604 7.68511 3.05893V3.05997ZM10.0656 4.21898C11.3787 5.49459 12.5574 6.90152 13.5833 8.41768C14.8819 7.29725 15.8895 5.87869 16.5199 4.28355C15.468 3.86017 14.3444 3.64344 13.2105 3.6452C12.1363 3.644 11.0709 3.8388 10.0667 4.22002L10.0656 4.21898ZM18.3558 5.29365C17.5589 7.20694 16.3024 8.89412 14.6975 10.2057C15.0599 10.8398 15.3963 11.4886 15.7055 12.1499C17.6664 11.3866 19.7876 11.0346 21.9692 11.2147C21.7968 10.0355 21.3879 8.90334 20.7672 7.88605C20.1464 6.86876 19.3266 5.98734 18.3568 5.29469L18.3558 5.29365ZM22.0244 13.3099C20.1271 13.1162 18.2548 13.4036 16.5136 14.0711C17.2334 15.9742 17.7102 17.9604 17.933 19.9828C19.0808 19.2587 20.0467 18.2803 20.756 17.1232C21.4653 15.9661 21.8989 14.6614 22.0234 13.3099H22.0244ZM15.9263 20.9221C15.7731 18.8873 15.3353 16.8841 14.6257 14.9709C12.4201 16.2382 10.5269 18.1324 9.21172 20.3952C10.4509 21.0236 11.8211 21.3501 13.2105 21.3481C14.1581 21.3481 15.0714 21.1991 15.9274 20.9232L15.9263 20.9221ZM7.4758 19.2393C9.00033 16.663 11.2142 14.4783 13.8197 13.034C13.5588 12.4764 13.2775 11.9286 12.9762 11.3918C10.4624 12.8413 7.45706 13.4786 4.38926 13.2443C4.58495 15.5722 5.69474 17.7277 7.4758 19.2393Z" fill="#C4B6B6"/>
</svg>
