<svg width="26" height="25" viewBox="0 0 26 25" fill="none" xmlns="http://www.w3.org/2000/svg">
<path fill-rule="evenodd" clip-rule="evenodd" d="M2.89062 6.24838C2.89062 5.14366 3.32948 4.08418 4.11064 3.30302C4.8918 2.52186 5.95128 2.08301 7.056 2.08301H19.5521C20.6569 2.08301 21.7163 2.52186 22.4975 3.30302C23.2787 4.08418 23.7175 5.14366 23.7175 6.24838V18.7445C23.7175 19.8492 23.2787 20.9087 22.4975 21.6899C21.7163 22.471 20.6569 22.9099 19.5521 22.9099H7.056C5.95128 22.9099 4.8918 22.471 4.11064 21.6899C3.32948 20.9087 2.89063 19.8492 2.89062 18.7445V6.24838ZM7.056 4.1657C6.50364 4.1657 5.9739 4.38512 5.58332 4.7757C5.19274 5.16628 4.97331 5.69602 4.97331 6.24838V18.7445C4.97331 19.2969 5.19274 19.8266 5.58332 20.2172C5.9739 20.6078 6.50364 20.8272 7.056 20.8272H13.3041V13.5378H12.2627C11.9865 13.5378 11.7217 13.4281 11.5264 13.2328C11.3311 13.0375 11.2214 12.7726 11.2214 12.4965C11.2214 12.2203 11.3311 11.9554 11.5264 11.7601C11.7217 11.5648 11.9865 11.4551 12.2627 11.4551H13.3041V9.89309C13.3041 8.92645 13.6881 7.99941 14.3716 7.31589C15.0551 6.63238 15.9821 6.24838 16.9488 6.24838H17.5736C17.8498 6.24838 18.1146 6.3581 18.3099 6.55339C18.5052 6.74868 18.6149 7.01355 18.6149 7.28973C18.6149 7.56591 18.5052 7.83078 18.3099 8.02607C18.1146 8.22136 17.8498 8.33107 17.5736 8.33107H16.9488C16.7436 8.33107 16.5405 8.37148 16.351 8.44998C16.1615 8.52847 15.9893 8.64353 15.8443 8.78858C15.6992 8.93362 15.5842 9.10582 15.5057 9.29533C15.4272 9.48484 15.3868 9.68796 15.3868 9.89309V11.4551H17.5736C17.8498 11.4551 18.1146 11.5648 18.3099 11.7601C18.5052 11.9554 18.6149 12.2203 18.6149 12.4965C18.6149 12.7726 18.5052 13.0375 18.3099 13.2328C18.1146 13.4281 17.8498 13.5378 17.5736 13.5378H15.3868V20.8272H19.5521C20.1045 20.8272 20.6342 20.6078 21.0248 20.2172C21.4154 19.8266 21.6348 19.2969 21.6348 18.7445V6.24838C21.6348 5.69602 21.4154 5.16628 21.0248 4.7757C20.6342 4.38512 20.1045 4.1657 19.5521 4.1657H7.056Z" fill="#C4B6B6"/>
</svg>
