<svg width="26" height="25" viewBox="0 0 26 25" fill="none" xmlns="http://www.w3.org/2000/svg">
<path fill-rule="evenodd" clip-rule="evenodd" d="M6.3851 2.08301C5.28038 2.08301 4.2209 2.52186 3.43974 3.30302C2.65858 4.08418 2.21973 5.14366 2.21973 6.24838V18.7445C2.21973 19.8492 2.65858 20.9087 3.43974 21.6899C4.2209 22.471 5.28038 22.9099 6.3851 22.9099H18.8812C19.986 22.9099 21.0454 22.471 21.8266 21.6899C22.6078 20.9087 23.0466 19.8492 23.0466 18.7445V6.24838C23.0466 5.14366 22.6078 4.08418 21.8266 3.30302C21.0454 2.52186 19.986 2.08301 18.8812 2.08301H6.3851ZM4.30242 6.24838C4.30242 5.69602 4.52184 5.16628 4.91242 4.7757C5.303 4.38512 5.83274 4.1657 6.3851 4.1657H18.8812C19.4336 4.1657 19.9633 4.38512 20.3539 4.7757C20.7445 5.16628 20.9639 5.69602 20.9639 6.24838V18.7445C20.9639 19.2969 20.7445 19.8266 20.3539 20.2172C19.9633 20.6078 19.4336 20.8272 18.8812 20.8272H6.3851C5.83274 20.8272 5.303 20.6078 4.91242 20.2172C4.52184 19.8266 4.30242 19.2969 4.30242 18.7445V6.24838ZM9.50914 11.4551C9.50914 11.1789 9.39942 10.9141 9.20413 10.7188C9.00884 10.5235 8.74397 10.4138 8.46779 10.4138C8.19161 10.4138 7.92674 10.5235 7.73145 10.7188C7.53616 10.9141 7.42645 11.1789 7.42645 11.4551V17.7032C7.42645 17.9794 7.53616 18.2442 7.73145 18.4395C7.92674 18.6348 8.19161 18.7445 8.46779 18.7445C8.74397 18.7445 9.00884 18.6348 9.20413 18.4395C9.39942 18.2442 9.50914 17.9794 9.50914 17.7032V11.4551ZM10.0298 7.8104C10.0298 8.22467 9.86524 8.62198 9.5723 8.91491C9.27937 9.20785 8.88206 9.37242 8.46779 9.37242C8.05352 9.37242 7.65621 9.20785 7.36328 8.91491C7.07034 8.62198 6.90578 8.22467 6.90578 7.8104C6.90578 7.39613 7.07034 6.99882 7.36328 6.70589C7.65621 6.41295 8.05352 6.24838 8.46779 6.24838C8.88206 6.24838 9.27937 6.41295 9.5723 6.70589C9.86524 6.99882 10.0298 7.39613 10.0298 7.8104ZM12.6332 10.4138C12.9872 10.4138 13.2996 10.5908 13.4871 10.8595C14.0238 10.5669 14.6253 10.4137 15.2365 10.4138C17.4858 10.4138 18.8812 12.4194 18.8812 14.1324V17.7032C18.8812 17.9794 18.7715 18.2442 18.5762 18.4395C18.3809 18.6348 18.1161 18.7445 17.8399 18.7445C17.5637 18.7445 17.2988 18.6348 17.1035 18.4395C16.9083 18.2442 16.7985 17.9794 16.7985 17.7032V14.1314C16.7985 13.3316 16.1113 12.4954 15.2365 12.4954C14.6909 12.4954 14.0879 12.7922 13.6745 13.4982V17.7032C13.6745 17.9794 13.5648 18.2442 13.3695 18.4395C13.1742 18.6348 12.9094 18.7445 12.6332 18.7445C12.357 18.7445 12.0921 18.6348 11.8968 18.4395C11.7015 18.2442 11.5918 17.9794 11.5918 17.7032V11.4551C11.5918 11.1789 11.7015 10.9141 11.8968 10.7188C12.0921 10.5235 12.357 10.4138 12.6332 10.4138Z" fill="#C4B6B6"/>
</svg>
