<svg width="26" height="25" viewBox="0 0 26 25" fill="none" xmlns="http://www.w3.org/2000/svg">
<path fill-rule="evenodd" clip-rule="evenodd" d="M3.93572 12.4966C3.93635 10.6134 4.53762 8.7794 5.65212 7.26134C6.76662 5.74328 8.33626 4.62025 10.1328 4.05551C11.9294 3.49078 13.8593 3.51378 15.6419 4.12116C17.4245 4.72855 18.9669 5.88866 20.045 7.43285C21.123 8.97704 21.6804 10.8248 21.6361 12.7075C21.5919 14.5903 20.9483 16.4098 19.7989 17.9017C18.6496 19.3935 17.0544 20.4799 15.2452 21.0029C13.436 21.5258 11.5072 21.4582 9.73913 20.8097C10.3399 19.1993 10.9227 17.5824 11.4875 15.9591C12.0853 16.386 12.8569 16.662 13.8285 16.662C15.8435 16.662 17.9678 15.3343 18.4937 12.7007C19.157 9.39445 16.5089 6.24855 12.7871 6.24855C11.222 6.24855 9.6829 6.87752 8.53117 7.87513C7.37736 8.87586 6.53908 10.3171 6.53908 11.9759C6.53908 12.783 6.78275 13.6817 7.36278 14.2731C7.55934 14.4666 7.82403 14.5751 8.09984 14.5753C8.37564 14.5755 8.64049 14.4674 8.83732 14.2742C9.02873 14.0829 9.13817 13.8246 9.14245 13.5541C9.14672 13.2835 9.0455 13.0219 8.86023 12.8246C8.04174 11.8041 9.12057 10.1213 9.89533 9.44964C10.7003 8.75194 11.7635 8.33124 12.7871 8.33124C15.3145 8.33124 16.8317 10.3921 16.4527 12.2925C16.1361 13.8691 14.9365 14.5793 13.8285 14.5793C12.9767 14.5793 12.5185 14.22 12.2248 13.7546C12.3852 13.2505 12.5216 12.7924 12.6195 12.4196C12.8194 11.6521 12.9402 10.7263 12.2498 10.1505C11.7364 9.72351 11.1304 9.81724 10.7596 10.0036C10.0692 10.3473 9.66311 11.1533 9.66311 11.9759C9.66311 12.4352 9.73496 13.1475 9.99322 13.8837C9.32124 15.8878 8.6137 17.8799 7.87096 19.8589C6.6595 19.0507 5.66641 17.9557 4.9799 16.6714C4.29339 15.387 3.93471 13.9529 3.93572 12.4966ZM12.7871 1.5625C6.74839 1.5625 1.85303 6.45786 1.85303 12.4966C1.85303 18.5354 6.74839 23.4307 12.7871 23.4307C18.8259 23.4307 23.7213 18.5354 23.7213 12.4966C23.7213 6.45786 18.8259 1.5625 12.7871 1.5625Z" fill="#C4B6B6"/>
</svg>
