<svg width="26" height="25" viewBox="0 0 26 25" fill="none" xmlns="http://www.w3.org/2000/svg">
<path fill-rule="evenodd" clip-rule="evenodd" d="M7.97333 4.23859C9.2042 2.77654 10.9474 2.08301 12.9218 2.08301C14.942 2.08301 16.6748 2.89942 17.8828 4.3875C18.9553 5.71001 19.5625 7.49487 19.6728 9.57027L19.7686 9.58485L19.7895 9.58798C19.9665 9.61297 20.1779 9.64421 20.3976 9.6869C21.2109 9.84415 22.599 10.2419 23.077 11.7321C23.3165 12.4808 23.1967 13.1744 22.7771 13.7242C22.4157 14.198 21.8992 14.4719 21.5296 14.6375C21.3463 14.7208 21.163 14.7916 21.0089 14.8509C21.3692 15.8256 21.9961 16.8284 22.6896 17.7365C23.3425 18.5925 23.1697 19.6765 22.8323 20.3836C22.4938 21.0917 21.7628 21.9008 20.6986 21.9467C20.0967 21.9727 19.4646 22.0352 18.8356 22.1497C18.5513 22.2018 18.216 22.3153 17.7995 22.4871C17.5506 22.5892 17.3225 22.6912 17.0768 22.8006C16.881 22.888 16.6748 22.9797 16.4363 23.0817C15.4575 23.5024 14.2547 23.9512 12.9218 23.9512C11.5889 23.9512 10.3861 23.5024 9.40726 23.0817C9.1688 22.9797 8.96157 22.888 8.76684 22.8006C8.52742 22.6927 8.2865 22.5882 8.04414 22.4871C7.62761 22.3153 7.29229 22.2007 7.00801 22.1487C6.37904 22.0341 5.74694 21.9727 5.144 21.9467C4.08079 21.9008 3.34872 21.0917 3.01133 20.3836C2.67393 19.6765 2.50107 18.5925 3.15399 17.7365C3.85169 16.8222 4.48171 15.8121 4.84097 14.8311C4.68333 14.7691 4.52741 14.7028 4.37341 14.6322C4.0131 14.4635 3.52367 14.1938 3.16232 13.7419C2.75932 13.2358 2.58125 12.5829 2.73954 11.8352C3.07693 10.2347 4.58272 9.83582 5.3783 9.68586C5.60428 9.64421 5.824 9.61297 6.00832 9.58694L6.04476 9.58173L6.16972 9.56403C6.27282 7.35117 6.87576 5.54131 7.97333 4.23859ZM9.56659 5.57984C8.77204 6.52226 8.23575 8.03741 8.23575 10.2659V10.3742L8.21284 10.4814C8.09725 11.0271 7.67759 11.2822 7.46932 11.3801C7.25064 11.4832 7.01426 11.5342 6.84764 11.5655C6.68519 11.5957 6.504 11.6207 6.34259 11.6425L6.29469 11.6498C6.11668 11.6734 5.93925 11.7012 5.76256 11.7331C4.96593 11.8821 4.81494 12.0799 4.77641 12.2642C4.74933 12.3965 4.77328 12.4236 4.78682 12.4381L4.79099 12.4423C4.84618 12.5121 4.97947 12.6162 5.25647 12.7453C5.38559 12.8057 5.52201 12.8609 5.673 12.9224L5.71049 12.9369C5.84274 12.989 5.99999 13.0525 6.13848 13.1181C6.2749 13.1806 6.50296 13.2952 6.69665 13.4805C6.92158 13.6961 7.19337 14.1168 7.06112 14.6718C6.68207 16.2661 5.72507 17.8011 4.81077 18.9986C4.79686 19.0336 4.79116 19.0714 4.79411 19.109C4.79411 19.2079 4.82223 19.3433 4.88991 19.486C4.95864 19.6286 5.04611 19.738 5.12734 19.8036C5.19399 19.8577 5.23147 19.866 5.23564 19.866C5.91355 19.8952 6.64145 19.966 7.38081 20.1003C7.88378 20.192 8.3805 20.3732 8.83869 20.5627C9.09174 20.6668 9.38227 20.796 9.66448 20.9209C9.86129 21.0084 10.0539 21.0938 10.2268 21.1677C11.163 21.5686 12.0367 21.8685 12.9218 21.8685C13.8069 21.8685 14.6817 21.5686 15.6168 21.1677C15.7897 21.0938 15.9823 21.0074 16.1791 20.9209C16.4603 20.796 16.7519 20.6668 17.0039 20.5627C17.4621 20.3732 17.9588 20.192 18.4618 20.1003C19.2011 19.965 19.93 19.8952 20.6069 19.866C20.6132 19.866 20.6496 19.8577 20.7163 19.8036C20.817 19.7157 20.8979 19.6074 20.9537 19.486C21.0121 19.3686 21.0448 19.24 21.0495 19.109C21.0495 19.0121 21.0255 18.9892 21.0339 19.0007C20.1196 17.8031 19.1615 16.2672 18.7814 14.6718C18.6409 14.0783 18.9626 13.6513 19.1844 13.4534C19.3823 13.2785 19.6135 13.1692 19.7541 13.1077C19.8946 13.0452 20.0529 12.9859 20.1883 12.9349L20.2383 12.9151C20.3976 12.8557 20.5403 12.8005 20.6746 12.7391C20.9558 12.6131 21.0755 12.5162 21.1161 12.4673C21.1125 12.4336 21.1051 12.4004 21.0943 12.3684C20.9995 12.0726 20.7319 11.8727 20.0009 11.7311C19.8353 11.6998 19.6676 11.6748 19.4906 11.6478L19.451 11.6425C19.2862 11.6202 19.122 11.5938 18.9585 11.5634C18.7464 11.5262 18.5401 11.4611 18.3451 11.3697C18.1264 11.2614 17.7411 11.0021 17.6308 10.4814L17.6079 10.3742V10.2649C17.6079 8.23423 17.0799 6.70345 16.2656 5.70064C15.4689 4.71761 14.3391 4.1657 12.9218 4.1657C11.4587 4.1657 10.3393 4.66138 9.56555 5.57984H9.56659Z" fill="#C4B6B6"/>
</svg>
